<?xml version="1.0" encoding="UTF-8"?><svg id="a" xmlns="http://www.w3.org/2000/svg" xmlns:xlink="http://www.w3.org/1999/xlink" viewBox="0 0 72.91 72.91"><defs><style>.e{fill:url(#c);}.f{fill:url(#b);}.g{fill:#db3a95;}</style><linearGradient id="b" x1=".85" y1="43.3" x2="37.73" y2="25.31" gradientUnits="userSpaceOnUse"><stop offset="0" stop-color="#181a24"/><stop offset=".25" stop-color="#1a1a25"/><stop offset=".4" stop-color="#221b2a"/><stop offset=".52" stop-color="#301e32"/><stop offset=".63" stop-color="#45213e"/><stop offset=".73" stop-color="#5f254d"/><stop offset=".82" stop-color="#7f2a5f"/><stop offset=".9" stop-color="#a53175"/><stop offset=".98" stop-color="#d0388e"/><stop offset="1" stop-color="#db3a95"/></linearGradient><linearGradient id="c" x1="27.1" y1="43.82" x2="42.65" y2="36.23" gradientUnits="userSpaceOnUse"><stop offset="0" stop-color="#181a24"/><stop offset=".12" stop-color="#1c1a26"/><stop offset=".27" stop-color="#2b1d2f"/><stop offset=".42" stop-color="#43213d"/><stop offset=".59" stop-color="#642650"/><stop offset=".76" stop-color="#8f2d69"/><stop offset=".93" stop-color="#c33687"/><stop offset="1" stop-color="#db3a95"/></linearGradient></defs><path class="f" d="M7.31,55.26h11.75c.39,0,.75-.23.91-.59l15.16-33.85c.14-.31.11-.67-.07-.95l-6.54-10.05c-.43-.66-1.41-.59-1.74.12L6.4,53.84c-.31.66.18,1.42.91,1.42Z"/><path class="g" d="M65.8,55.26h-11.75c-.4,0-.75-.23-.91-.59l-15.16-33.85c-.14-.31-.11-.67.07-.96l6.54-10.05c.43-.66,1.42-.59,1.75.12l20.37,43.89c.31.66-.18,1.42-.91,1.42Z"/><path class="e" d="M35.56,25.37l-7.68,17.03c-.1.23-.11.49-.03.73l2.92,8.22c.14.39.51.65.92.65h8.28c.37,0,.71-.21.88-.54l4.13-8.27c.13-.27.14-.58.02-.86l-7.66-16.96c-.35-.77-1.44-.77-1.79,0Z"/></svg>